<?xml version="1.0" encoding="UTF-8"?>
<svg id="Layer_1" data-name="Layer 1" xmlns="http://www.w3.org/2000/svg" viewBox="0 0 486.44 479.7">
  <defs>
    <style>
      .cls-1 {
        fill: #fff;
      }
    </style>
  </defs>
  <g id="aoKQnI.tif">
    <g>
      <path d="M486.44.96v478.74H.96V.96s485.48,0,485.48,0ZM483.55,121.13l-113.75-6.9c-29.33-51.04-78.13-88.16-136.96-97.61C90.1-6.32-24.58,131.28,24.02,267.75c40.13,112.68,176.89,160.29,278.73,96.03,59.89-37.79,91.9-103.63,89.02-174.39l90.58-66.06,1.22-2.2ZM283.6,469.13l-82.05-65.26-81.38,65.26h163.43Z"/>
      <polygon class="cls-1" points=".96 479.7 0 479.7 0 0 486.44 0 486.44 .96 .96 .96 .96 479.7"/>
      <path class="cls-1" d="M483.55,121.13l-1.22,2.2-90.58,66.06c2.88,70.76-29.13,136.6-89.02,174.39-101.84,64.26-238.6,16.65-278.73-96.03C-24.58,131.28,90.1-6.32,232.85,16.62c58.83,9.45,107.63,46.57,136.96,97.61l113.75,6.9ZM327.22,136.45c0-26.82-21.75-48.57-48.57-48.57s-48.57,21.74-48.57,48.57,21.75,48.57,48.57,48.57,48.57-21.74,48.57-48.57Z"/>
      <polygon class="cls-1" points="283.6 469.13 120.17 469.13 201.55 403.87 283.6 469.13"/>
      <path d="M327.22,136.45c0,26.82-21.75,48.57-48.57,48.57s-48.57-21.74-48.57-48.57,21.75-48.57,48.57-48.57,48.57,21.74,48.57,48.57ZM319.78,123c0-8.91-7.22-16.13-16.13-16.13s-16.13,7.22-16.13,16.13,7.22,16.13,16.13,16.13,16.13-7.22,16.13-16.13Z"/>
      <circle class="cls-1" cx="303.65" cy="123" r="16.13"/>
    </g>
  </g>
</svg>